HIERARCHY
ROOT Hips
{
	OFFSET 0.000000 97.167313 0.000000
	CHANNELS 6 Xposition Yposition Zposition Xrotation Yrotation Zrotation
	JOINT Spine
	{
		OFFSET 0.000000 13.784798 0.064400
		CHANNELS 3 Xrotation Yrotation Zrotation
		JOINT Spine1
		{
			OFFSET 0.000000 12.037903 0.404700
			CHANNELS 3 Xrotation Yrotation Zrotation
			JOINT Spine2
			{
				OFFSET 0.000000 17.795601 0.420200
				CHANNELS 3 Xrotation Yrotation Zrotation
				JOINT Neck
				{
					OFFSET 0.000000 39.131302 11.954600
					CHANNELS 3 Xrotation Yrotation Zrotation
					JOINT Head
					{
						OFFSET 0.000000 14.456192 15.627699
						CHANNELS 3 Xrotation Yrotation Zrotation
						JOINT HeadTop_End
						{
							OFFSET 0.000000 15.703506 7.603401
							CHANNELS 3 Xrotation Yrotation Zrotation
							End Site
							{
								OFFSET 0.000000 17.447403 0.000000
							}
						}
					}
				}
				JOINT LeftShoulder
				{
					OFFSET 17.399500 24.608795 1.168800
					CHANNELS 3 Xrotation Yrotation Zrotation
					JOINT LeftArm
					{
						OFFSET 18.980635 5.765305 1.818600
						CHANNELS 3 Xrotation Yrotation Zrotation
						JOINT LeftForeArm
						{
							OFFSET 49.290169 0.000000 0.000000
							CHANNELS 3 Xrotation Yrotation Zrotation
							JOINT LeftHand
							{
								OFFSET 31.562012 0.000000 0.000000
								CHANNELS 3 Xrotation Yrotation Zrotation
								JOINT LeftHandThumb1
								{
									OFFSET 6.133995 -4.388519 7.076070
									CHANNELS 3 Xrotation Yrotation Zrotation
									JOINT LeftHandThumb2
									{
										OFFSET 6.037666 -3.485840 3.485847
										CHANNELS 3 Xrotation Yrotation Zrotation
										JOINT LeftHandThumb3
										{
											OFFSET 6.496506 -3.750763 3.750761
											CHANNELS 3 Xrotation Yrotation Zrotation
											JOINT LeftHandThumb4
											{
												OFFSET 5.616882 -3.242905 3.242910
												CHANNELS 3 Xrotation Yrotation Zrotation
												End Site
												{
													OFFSET -1.254608 7.132141 0.375429
												}
											}
										}
									}
								}
								JOINT LeftHandPinky1
								{
									OFFSET 18.920792 -0.453171 -11.426712
									CHANNELS 3 Xrotation Yrotation Zrotation
									JOINT LeftHandPinky2
									{
										OFFSET 4.919586 0.000000 0.000000
										CHANNELS 3 Xrotation Yrotation Zrotation
										JOINT LeftHandPinky3
										{
											OFFSET 5.233047 0.000000 0.000000
											CHANNELS 3 Xrotation Yrotation Zrotation
											JOINT LeftHandPinky4
											{
												OFFSET 5.571716 0.000000 0.000000
												CHANNELS 3 Xrotation Yrotation Zrotation
												End Site
												{
													OFFSET -3.459808 4.342407 -0.466164
												}
											}
										}
									}
								}
								JOINT LeftHandRing1
								{
									OFFSET 22.726120 -0.094986 -6.500475
									CHANNELS 3 Xrotation Yrotation Zrotation
									JOINT LeftHandRing2
									{
										OFFSET 6.408615 0.000000 0.000000
										CHANNELS 3 Xrotation Yrotation Zrotation
										JOINT LeftHandRing3
										{
											OFFSET 6.150223 0.000000 0.000000
											CHANNELS 3 Xrotation Yrotation Zrotation
											JOINT LeftHandRing4
											{
												OFFSET 6.145386 0.000000 0.000000
												CHANNELS 3 Xrotation Yrotation Zrotation
												End Site
												{
													OFFSET -3.671402 4.923981 -0.202372
												}
											}
										}
									}
								}
								JOINT LeftHandMiddle1
								{
									OFFSET 23.373947 0.000000 0.000001
									CHANNELS 3 Xrotation Yrotation Zrotation
									JOINT LeftHandMiddle2
									{
										OFFSET 6.996567 0.000000 0.000000
										CHANNELS 3 Xrotation Yrotation Zrotation
										JOINT LeftHandMiddle3
										{
											OFFSET 7.015945 0.000000 0.000000
											CHANNELS 3 Xrotation Yrotation Zrotation
											JOINT LeftHandMiddle4
											{
												OFFSET 7.721573 0.000000 0.000000
												CHANNELS 3 Xrotation Yrotation Zrotation
												End Site
												{
													OFFSET -4.651108 6.158463 0.251582
												}
											}
										}
									}
								}
								JOINT LeftHandIndex1
								{
									OFFSET 21.310577 -0.490082 6.209344
									CHANNELS 3 Xrotation Yrotation Zrotation
									JOINT LeftHandIndex2
									{
										OFFSET 7.536453 0.000000 0.000000
										CHANNELS 3 Xrotation Yrotation Zrotation
										JOINT LeftHandIndex3
										{
											OFFSET 7.512344 0.000000 0.000000
											CHANNELS 3 Xrotation Yrotation Zrotation
											JOINT LeftHandIndex4
											{
												OFFSET 10.212402 0.000000 0.000001
												CHANNELS 3 Xrotation Yrotation Zrotation
												End Site
												{
													OFFSET -5.180801 8.690506 1.388433
												}
											}
										}
									}
								}
							}
						}
					}
				}
				JOINT RightShoulder
				{
					OFFSET -17.399500 24.608795 1.168800
					CHANNELS 3 Xrotation Yrotation Zrotation
					JOINT RightArm
					{
						OFFSET -18.980635 5.765305 1.818600
						CHANNELS 3 Xrotation Yrotation Zrotation
						JOINT RightForeArm
						{
							OFFSET -49.290169 0.000000 0.000000
							CHANNELS 3 Xrotation Yrotation Zrotation
							JOINT RightHand
							{
								OFFSET -31.562012 0.000000 0.000000
								CHANNELS 3 Xrotation Yrotation Zrotation
								JOINT RightHandThumb1
								{
									OFFSET -6.133995 -4.388519 7.076070
									CHANNELS 3 Xrotation Yrotation Zrotation
									JOINT RightHandThumb2
									{
										OFFSET -6.037666 -3.485840 3.485847
										CHANNELS 3 Xrotation Yrotation Zrotation
										JOINT RightHandThumb3
										{
											OFFSET -6.496506 -3.750763 3.750761
											CHANNELS 3 Xrotation Yrotation Zrotation
											JOINT RightHandThumb4
											{
												OFFSET -5.616882 -3.242905 3.242910
												CHANNELS 3 Xrotation Yrotation Zrotation
												End Site
												{
													OFFSET 1.254608 7.132141 0.375429
												}
											}
										}
									}
								}
								JOINT RightHandIndex1
								{
									OFFSET -21.310577 -0.490082 6.209344
									CHANNELS 3 Xrotation Yrotation Zrotation
									JOINT RightHandIndex2
									{
										OFFSET -7.536453 0.000000 0.000000
										CHANNELS 3 Xrotation Yrotation Zrotation
										JOINT RightHandIndex3
										{
											OFFSET -7.512344 0.000000 0.000000
											CHANNELS 3 Xrotation Yrotation Zrotation
											JOINT RightHandIndex4
											{
												OFFSET -10.212402 0.000000 0.000001
												CHANNELS 3 Xrotation Yrotation Zrotation
												End Site
												{
													OFFSET 5.180801 8.690506 1.388433
												}
											}
										}
									}
								}
								JOINT RightHandMiddle1
								{
									OFFSET -23.373947 0.000000 0.000001
									CHANNELS 3 Xrotation Yrotation Zrotation
									JOINT RightHandMiddle2
									{
										OFFSET -6.996567 0.000000 0.000000
										CHANNELS 3 Xrotation Yrotation Zrotation
										JOINT RightHandMiddle3
										{
											OFFSET -7.015945 0.000000 0.000000
											CHANNELS 3 Xrotation Yrotation Zrotation
											JOINT RightHandMiddle4
											{
												OFFSET -7.721573 0.000000 0.000000
												CHANNELS 3 Xrotation Yrotation Zrotation
												End Site
												{
													OFFSET 4.651108 6.158463 0.251582
												}
											}
										}
									}
								}
								JOINT RightHandRing1
								{
									OFFSET -22.726120 -0.094986 -6.500475
									CHANNELS 3 Xrotation Yrotation Zrotation
									JOINT RightHandRing2
									{
										OFFSET -6.408615 0.000000 0.000000
										CHANNELS 3 Xrotation Yrotation Zrotation
										JOINT RightHandRing3
										{
											OFFSET -6.150223 0.000000 0.000000
											CHANNELS 3 Xrotation Yrotation Zrotation
											JOINT RightHandRing4
											{
												OFFSET -6.145386 0.000000 0.000000
												CHANNELS 3 Xrotation Yrotation Zrotation
												End Site
												{
													OFFSET 3.671402 4.923981 -0.202372
												}
											}
										}
									}
								}
								JOINT RightHandPinky1
								{
									OFFSET -18.920792 -0.453171 -11.426712
									CHANNELS 3 Xrotation Yrotation Zrotation
									JOINT RightHandPinky2
									{
										OFFSET -4.919586 0.000000 0.000000
										CHANNELS 3 Xrotation Yrotation Zrotation
										JOINT RightHandPinky3
										{
											OFFSET -5.233047 0.000000 0.000000
											CHANNELS 3 Xrotation Yrotation Zrotation
											JOINT RightHandPinky4
											{
												OFFSET -5.571716 0.000000 0.000000
												CHANNELS 3 Xrotation Yrotation Zrotation
												End Site
												{
													OFFSET 3.459808 4.342407 -0.466164
												}
											}
										}
									}
								}
							}
						}
					}
				}
			}
		}
	}
	JOINT LeftUpLeg
	{
		OFFSET 19.899099 -7.885101 -3.429500
		CHANNELS 3 Xrotation Yrotation Zrotation
		JOINT LeftLeg
		{
			OFFSET 1.745560 -36.997807 10.304700
			CHANNELS 3 Xrotation Yrotation Zrotation
			JOINT LeftFoot
			{
				OFFSET -1.745558 -29.803308 -13.615400
				CHANNELS 3 Xrotation Yrotation Zrotation
				JOINT LeftToeBase
				{
					OFFSET 1.181900 -18.539904 15.226099
					CHANNELS 3 Xrotation Yrotation Zrotation
					JOINT LeftToe_End
					{
						OFFSET -0.863701 1.402801 16.534700
						CHANNELS 3 Xrotation Yrotation Zrotation
						End Site
						{
							OFFSET 0.000000 16.616566 0.000000
						}
					}
				}
			}
		}
	}
	JOINT RightUpLeg
	{
		OFFSET -19.899099 -7.885101 -3.429500
		CHANNELS 3 Xrotation Yrotation Zrotation
		JOINT RightLeg
		{
			OFFSET -1.745560 -36.997807 10.304700
			CHANNELS 3 Xrotation Yrotation Zrotation
			JOINT RightFoot
			{
				OFFSET 1.745558 -29.803308 -13.615400
				CHANNELS 3 Xrotation Yrotation Zrotation
				JOINT RightToeBase
				{
					OFFSET -1.181900 -18.539904 15.226099
					CHANNELS 3 Xrotation Yrotation Zrotation
					JOINT RightToe_End
					{
						OFFSET 0.863701 1.402801 16.534700
						CHANNELS 3 Xrotation Yrotation Zrotation
						End Site
						{
							OFFSET 0.000000 16.616566 0.000000
						}
					}
				}
			}
		}
	}
}
MOTION
Frames: 5
Frame Time: 0.033333
-3.411536 87.004997 2.531044 2.603324 -53.962729 -3.615677 2.612945 6.663076 1.974229 2.701726 7.877995 -0.409620 2.790724 7.864873 -0.593071 12.118110 6.829906 -4.433336 -0.737350 20.027404 8.229671 -0.000001 0.000001 0.000000 3.544252 4.756005 -11.623017 -54.038862 -33.116428 -50.381548 -0.000161 -81.882364 -0.000162 -58.768382 25.992618 38.870327 -14.557464 10.837966 12.229969 0.749540 -4.257866 13.305468 -10.783664 -23.179394 -4.132386 -0.000000 0.000002 -0.000002 -8.298311 -6.522674 -38.520146 2.848777 5.024382 -59.084428 0.876793 3.084718 -31.727506 -0.000001 0.000001 -0.000000 -6.054129 -0.166584 -49.857581 3.046283 5.137016 -61.313952 0.351704 2.001095 -19.935116 0.000000 0.000000 0.000005 -2.430830 1.729224 -41.460918 2.952347 5.084720 -60.259938 1.321772 3.707977 -39.227843 0.000000 0.000000 0.000008 -0.809530 2.578170 -31.496417 3.095889 5.163779 -61.866979 0.503762 2.378642 -23.913121 -0.000001 -0.000001 0.000001 -14.733698 2.115978 -4.463086 72.337529 138.834072 -52.653481 0.000010 29.080678 -0.000006 -49.752457 -7.371296 -31.498766 8.377144 -4.904124 11.022005 21.620218 -18.183883 -18.379209 -0.702960 -49.821206 -32.535186 0.000001 0.000000 0.000001 0.558920 -4.406568 25.436673 1.653039 -3.560340 49.799111 1.737722 -3.630052 51.149231 -0.000002 -0.000001 -0.000002 10.969809 -12.875579 52.800846 6.387606 -4.324408 111.833652 0.247395 -1.499125 18.739124 0.000001 0.000001 -0.000006 3.705068 -7.151342 57.622440 5.328215 -4.608674 98.293430 1.627352 -3.538509 49.383982 -0.000000 -0.000000 -0.000003 0.474815 -5.172969 58.987679 3.194318 -4.421927 71.674168 1.771401 -3.656917 51.679554 -0.000000 -0.000000 0.000002 -31.400852 6.887654 28.375217 31.446659 5.637081 -1.598969 2.200513 8.458182 -14.344060 -0.000044 -0.000002 0.000002 0.000000 -0.000002 -0.000000 -10.490896 -13.374777 -13.562006 18.558292 10.327460 -0.093114 -7.647137 -12.249008 15.586731 -0.000001 -0.000014 0.000001 -0.000000 0.000002 -0.000000 
-3.219364 87.053276 2.322570 3.741369 -54.161535 -2.773935 2.780453 6.719602 1.979539 2.880770 7.920897 -0.423665 2.968218 7.909949 -0.605491 11.787657 6.920746 -4.743111 -2.098899 20.088138 8.503555 0.000001 0.000000 0.000002 3.646167 4.833211 -12.036450 -54.059158 -33.316321 -50.396646 0.000250 -82.027970 0.000249 -58.530377 25.310673 38.853719 -14.557469 10.837970 12.229969 0.749543 -4.257863 13.305471 -10.783667 -23.179391 -4.132382 0.000003 0.000002 -0.000001 -8.298311 -6.522673 -38.520150 2.848779 5.024385 -59.084428 0.876790 3.084717 -31.727509 0.000000 0.000000 -0.000002 -6.054129 -0.166584 -49.857577 3.046283 5.137015 -61.313952 0.351703 2.001097 -19.935109 -0.000000 -0.000000 0.000005 -2.430833 1.729226 -41.460918 2.952348 5.084719 -60.259938 1.321772 3.707977 -39.227839 0.000000 -0.000000 0.000008 -0.809528 2.578166 -31.496417 3.095892 5.163777 -61.866966 0.503763 2.378647 -23.913122 -0.000001 0.000001 0.000001 -14.702389 1.933039 -4.194263 72.105645 138.321849 -52.430615 0.000008 29.592017 0.000001 -49.252511 -7.311913 -31.453858 8.377144 -4.904129 11.022010 21.620219 -18.183879 -18.379206 -0.702964 -49.821206 -32.535183 -0.000001 -0.000001 -0.000001 0.558922 -4.406568 25.436676 1.653037 -3.560342 49.799111 1.737727 -3.630051 51.149224 -0.000001 -0.000003 -0.000002 10.969806 -12.875584 52.800849 6.387606 -4.324407 111.833652 0.247397 -1.499126 18.739126 -0.000000 -0.000001 -0.000008 3.705068 -7.151344 57.622440 5.328215 -4.608674 98.293430 1.627353 -3.538510 49.383982 -0.000000 -0.000000 0.000002 0.474813 -5.172968 58.987672 3.194316 -4.421926 71.674168 1.771398 -3.656920 51.679554 0.000002 0.000001 0.000007 -32.198389 6.882060 28.535185 31.106464 5.638016 -1.746720 2.648635 8.516530 -14.165768 0.000060 -0.000005 -0.000008 0.000000 -0.000002 0.000000 -11.226540 -12.893232 -13.106627 18.362011 10.241681 -0.322720 -7.462262 -12.634435 15.492199 0.326965 0.000002 -0.000001 0.000000 -0.000001 0.000000 
-2.903674 86.893585 1.926065 6.059765 -54.472316 -1.014167 2.977099 6.772209 1.944790 3.082019 7.942433 -0.462188 3.167255 7.935426 -0.644546 10.945708 7.075104 -5.098675 -3.742289 20.288916 8.759543 0.000000 -0.000001 -0.000000 3.809194 4.980937 -12.690523 -54.254730 -33.577490 -50.243585 0.000036 -82.296123 0.000026 -58.191894 24.609248 38.607146 -14.557469 10.837967 12.229967 0.749543 -4.257866 13.305469 -10.783667 -23.179393 -4.132382 0.000001 0.000001 -0.000001 -8.298312 -6.522672 -38.520143 2.848781 5.024386 -59.084422 0.876793 3.084717 -31.727503 0.000000 -0.000001 -0.000006 -6.054132 -0.166584 -49.857577 3.046282 5.137013 -61.313952 0.351702 2.001098 -19.935113 0.000001 -0.000001 0.000005 -2.430830 1.729223 -41.460918 2.952347 5.084718 -60.259931 1.321773 3.707977 -39.227839 0.000001 -0.000001 0.000001 -0.809530 2.578170 -31.496417 3.095889 5.163780 -61.866972 0.503762 2.378642 -23.913126 0.000000 -0.000000 -0.000001 -14.656531 1.795160 -3.880108 71.715996 137.761432 -52.149092 0.000010 30.354191 0.000000 -48.614288 -7.173254 -31.671625 8.377138 -4.904127 11.022008 21.620219 -18.183879 -18.379206 -0.702962 -49.821206 -32.535176 0.000002 0.000000 0.000002 0.558918 -4.406566 25.436676 1.653038 -3.560340 49.799111 1.737724 -3.630053 51.149231 -0.000001 0.000000 -0.000001 10.969809 -12.875585 52.800842 6.387607 -4.324409 111.833658 0.247394 -1.499129 18.739123 -0.000001 0.000002 -0.000004 3.705068 -7.151343 57.622440 5.328216 -4.608673 98.293437 1.627353 -3.538511 49.383982 -0.000001 0.000001 -0.000003 0.474810 -5.172968 58.987672 3.194320 -4.421927 71.674168 1.771400 -3.656917 51.679557 0.000002 -0.000000 0.000002 -34.069233 6.738076 28.928474 31.050303 5.570133 -2.037594 3.231218 8.602587 -13.906316 -0.000022 -0.000002 -0.000007 -0.000000 -0.000000 -0.000000 -13.182741 -12.052940 -12.610600 18.950274 10.212902 -0.456661 -7.491407 -13.308489 15.221879 0.655405 -0.000039 0.000000 0.000000 0.000001 -0.000000 
-2.427530 86.147141 1.289337 9.774700 -54.675367 1.650967 3.169411 6.874156 2.078832 3.293667 7.938538 -0.498951 3.373837 7.938308 -0.684654 9.401346 7.263671 -5.503436 -5.482517 20.472940 8.842708 -0.000001 0.000000 0.000000 4.034311 5.071722 -13.576067 -54.806094 -34.133443 -49.910094 0.000366 -82.456332 0.000365 -57.830372 23.764298 38.062045 -14.557464 10.837970 12.229967 0.749542 -4.257861 13.305471 -10.783670 -23.179393 -4.132384 0.000001 -0.000001 0.000000 -8.298312 -6.522674 -38.520150 2.848781 5.024384 -59.084428 0.876793 3.084717 -31.727509 -0.000001 -0.000000 0.000003 -6.054131 -0.166583 -49.857577 3.046282 5.137015 -61.313952 0.351705 2.001096 -19.935106 -0.000000 0.000001 -0.000003 -2.430832 1.729224 -41.460918 2.952347 5.084719 -60.259945 1.321772 3.707977 -39.227839 -0.000000 -0.000001 0.000006 -0.809528 2.578167 -31.496417 3.095888 5.163780 -61.866972 0.503762 2.378644 -23.913127 -0.000000 0.000001 0.000003 -14.631339 1.563723 -3.619524 70.977851 137.089273 -51.827933 0.000021 31.316496 -0.000003 -48.024430 -6.877168 -32.188988 8.377143 -4.904127 11.022006 21.620219 -18.183883 -18.379206 -0.702957 -49.821210 -32.535183 -0.000003 -0.000001 0.000002 0.558920 -4.406570 25.436669 1.653041 -3.560344 49.799111 1.737723 -3.630051 51.149227 -0.000001 -0.000001 -0.000001 10.969811 -12.875584 52.800849 6.387605 -4.324410 111.833658 0.247392 -1.499126 18.739121 -0.000000 -0.000002 -0.000009 3.705069 -7.151343 57.622440 5.328216 -4.608674 98.293430 1.627352 -3.538509 49.383982 -0.000000 0.000000 -0.000005 0.474811 -5.172969 58.987672 3.194315 -4.421929 71.674168 1.771404 -3.656913 51.679557 -0.000001 -0.000001 -0.000003 -37.746795 5.899247 29.744067 32.256747 5.370600 -2.324823 3.689603 8.689048 -13.761512 -0.000029 0.000010 0.000003 0.000000 -0.000002 -0.000000 -16.869867 -10.945956 -11.933975 21.559921 10.277750 -0.192350 -8.960583 -14.304415 13.624125 1.109093 0.000013 -0.000000 -0.000000 0.000001 -0.000000 
-1.830602 84.478745 0.499958 14.561639 -54.534744 4.825722 3.348064 7.105333 2.569225 3.523533 7.888042 -0.492474 3.595729 7.896952 -0.685673 7.248065 7.464343 -6.004163 -7.390241 20.525992 8.584330 0.000001 -0.000000 -0.000000 4.310797 4.855552 -14.654558 -55.705715 -35.036118 -49.263026 -0.000013 -82.561858 -0.000014 -57.701431 22.470399 37.674285 -14.557462 10.837972 12.229969 0.749544 -4.257864 13.305472 -10.783667 -23.179394 -4.132384 -0.000001 -0.000000 -0.000002 -8.298308 -6.522675 -38.520146 2.848777 5.024381 -59.084422 0.876794 3.084718 -31.727506 0.000002 0.000000 -0.000002 -6.054130 -0.166583 -49.857577 3.046282 5.137014 -61.313952 0.351703 2.001095 -19.935114 0.000000 0.000001 -0.000003 -2.430831 1.729223 -41.460918 2.952348 5.084721 -60.259938 1.321772 3.707976 -39.227839 0.000000 -0.000001 0.000006 -0.809526 2.578165 -31.496413 3.095889 5.163781 -61.866972 0.503762 2.378645 -23.913117 -0.000001 -0.000001 0.000003 -14.654548 1.116849 -3.481644 69.808092 136.287710 -51.555245 0.000016 32.509737 -0.000009 -47.354914 -6.561812 -32.693465 8.377144 -4.904130 11.022007 21.620216 -18.183878 -18.379207 -0.702960 -49.821196 -32.535179 -0.000000 -0.000001 0.000001 0.558921 -4.406568 25.436675 1.653040 -3.560341 49.799107 1.737723 -3.630051 51.149227 -0.000002 -0.000005 -0.000002 10.969809 -12.875583 52.800846 6.387607 -4.324410 111.833658 0.247396 -1.499127 18.739124 -0.000000 0.000002 -0.000009 3.705068 -7.151343 57.622440 5.328216 -4.608674 98.293430 1.627354 -3.538509 49.383985 -0.000001 -0.000000 -0.000002 0.474811 -5.172968 58.987672 3.194319 -4.421926 71.674168 1.771403 -3.656914 51.679554 0.000001 -0.000001 0.000000 -43.408765 3.807902 30.826051 35.527260 4.808118 -2.347207 3.721073 9.068617 -13.984841 0.000014 0.000000 -0.000000 0.000000 0.000000 -0.000000 -22.331017 -9.736438 -11.191087 26.679607 10.188206 0.568230 -12.088663 -14.915653 10.620158 1.617175 0.000002 -0.000003 -0.000000 0.000000 0.000000 
